<svg width="183" height="48" viewBox="0 0 183 48" fill="none" xmlns="http://www.w3.org/2000/svg">
<mask id="path-1-inside-1_8_192" fill="white">
<path d="M7.19225 24.7845C6.80022 24.3954 6.80022 23.7647 7.19225 23.3757L10.8528 19.7432C13.205 17.4091 17.0186 17.4091 19.3707 19.7432L23.0313 23.3757C23.4234 23.7647 23.4234 24.3954 23.0313 24.7845L19.3707 28.4169C17.0186 30.751 13.205 30.751 10.8528 28.4169L7.19225 24.7845Z"/>
</mask>
<path d="M7.19225 24.7845C6.80022 24.3954 6.80022 23.7647 7.19225 23.3757L10.8528 19.7432C13.205 17.4091 17.0186 17.4091 19.3707 19.7432L23.0313 23.3757C23.4234 23.7647 23.4234 24.3954 23.0313 24.7845L19.3707 28.4169C17.0186 30.751 13.205 30.751 10.8528 28.4169L7.19225 24.7845Z" stroke="#3A3845" stroke-width="5" mask="url(#path-1-inside-1_8_192)"/>
<mask id="path-2-inside-2_8_192" fill="white">
<path d="M27.4969 24.7845C27.1049 24.3954 27.1049 23.7647 27.4969 23.3757L31.1575 19.7432C33.5097 17.4091 37.3233 17.4091 39.6754 19.7432L43.336 23.3757C43.728 23.7647 43.728 24.3954 43.336 24.7845L39.6754 28.4169C37.3233 30.751 33.5097 30.751 31.1575 28.4169L27.4969 24.7845Z"/>
</mask>
<path d="M27.4969 24.7845C27.1049 24.3954 27.1049 23.7647 27.4969 23.3757L31.1575 19.7432C33.5097 17.4091 37.3233 17.4091 39.6754 19.7432L43.336 23.3757C43.728 23.7647 43.728 24.3954 43.336 24.7845L39.6754 28.4169C37.3233 30.751 33.5097 30.751 31.1575 28.4169L27.4969 24.7845Z" stroke="#3A3845" stroke-width="5" mask="url(#path-2-inside-2_8_192)"/>
<mask id="path-3-inside-3_8_192" fill="white">
<path d="M24.5538 6.14749C24.9459 5.75847 25.5815 5.75848 25.9735 6.14749L29.6341 9.77996C31.9862 12.1141 31.9862 15.8984 29.6341 18.2325L25.9735 21.8649C25.5815 22.254 24.9459 22.254 24.5538 21.8649L20.8933 18.2325C18.5411 15.8984 18.5411 12.1141 20.8933 9.77996L24.5538 6.14749Z"/>
</mask>
<path d="M24.5538 6.14749C24.9459 5.75847 25.5815 5.75848 25.9735 6.14749L29.6341 9.77996C31.9862 12.1141 31.9862 15.8984 29.6341 18.2325L25.9735 21.8649C25.5815 22.254 24.9459 22.254 24.5538 21.8649L20.8933 18.2325C18.5411 15.8984 18.5411 12.1141 20.8933 9.77996L24.5538 6.14749Z" stroke="#3A3845" stroke-width="5" mask="url(#path-3-inside-3_8_192)"/>
<mask id="path-4-inside-4_8_192" fill="white">
<path d="M24.421 25.2952C24.8131 24.9062 25.4487 24.9062 25.8407 25.2952L29.5013 28.9277C31.8534 31.2618 31.8534 35.0461 29.5013 37.3802L25.8407 41.0126C25.4487 41.4017 24.8131 41.4017 24.421 41.0126L20.7605 37.3802C18.4083 35.0461 18.4083 31.2618 20.7605 28.9277L24.421 25.2952Z"/>
</mask>
<path d="M24.421 25.2952C24.8131 24.9062 25.4487 24.9062 25.8407 25.2952L29.5013 28.9277C31.8534 31.2618 31.8534 35.0461 29.5013 37.3802L25.8407 41.0126C25.4487 41.4017 24.8131 41.4017 24.421 41.0126L20.7605 37.3802C18.4083 35.0461 18.4083 31.2618 20.7605 28.9277L24.421 25.2952Z" stroke="#3A3845" stroke-width="5" mask="url(#path-4-inside-4_8_192)"/>
<path d="M49.6148 24C49.6148 24.8711 49.237 25.6451 48.6112 26.6248C48.516 26.7738 48.4124 26.9308 48.3038 27.0954C47.7595 27.9199 47.0908 28.933 46.746 30.0628C46.3871 31.239 46.26 32.5447 46.1487 33.6878C46.1181 34.0017 46.0887 34.3034 46.0561 34.5868C45.8924 36.0078 45.6466 37.1026 45.0324 37.9371C44.4223 38.7658 43.4411 39.3393 42.1312 39.9355C41.8734 40.0528 41.598 40.1726 41.312 40.2969C40.2563 40.756 39.0563 41.2779 38.0655 41.9709C37.0923 42.6517 36.3735 43.6057 35.8037 44.3618C35.708 44.4888 35.6166 44.6102 35.5288 44.7238C34.8584 45.5914 34.3231 46.1435 33.5917 46.4014C32.5065 46.7839 31.3298 46.8026 29.9462 46.6886C29.5492 46.6559 29.1195 46.6097 28.6696 46.5613C27.6473 46.4514 26.5202 46.3302 25.4324 46.3302C24.3446 46.3302 23.2175 46.4514 22.1952 46.5613C21.7453 46.6097 21.3156 46.6559 20.9186 46.6886C19.535 46.8026 18.3583 46.7839 17.2731 46.4014C16.2841 46.0527 15.4883 45.4342 14.6337 44.6283C14.4192 44.426 14.1927 44.2027 13.9551 43.9684C13.3032 43.3256 12.5668 42.5995 11.7609 41.9952C10.9607 41.3951 10.0199 40.8742 9.17281 40.4053C8.8841 40.2454 8.60628 40.0916 8.34864 39.9427C7.25977 39.3136 6.40369 38.7131 5.83245 37.9371C5.18033 37.0512 4.83068 35.8959 4.54917 34.4853C4.47282 34.1027 4.40013 33.6891 4.32467 33.2597C4.14106 32.215 3.94099 31.0767 3.63163 30.0629C3.32151 29.0466 2.81437 28.1109 2.38649 27.3215C2.27248 27.1112 2.1641 26.9112 2.06657 26.7229C1.57181 25.7675 1.25 24.9493 1.25 24C1.25 23.0858 1.66188 22.0968 2.30268 20.8974C2.42238 20.6734 2.55294 20.4378 2.68829 20.1936C3.21075 19.2509 3.80445 18.1796 4.11884 17.1493C4.47003 15.9984 4.59987 14.8367 4.71001 13.8512C4.74201 13.5649 4.77235 13.2935 4.80596 13.0415C4.96324 11.8627 5.19665 10.9266 5.83245 10.0629C6.38974 9.30586 7.22394 8.75539 8.31273 8.17316C8.53901 8.05217 8.78176 7.92751 9.03454 7.7977C9.91213 7.34705 10.9107 6.83427 11.7609 6.19672C12.6098 5.56013 13.3735 4.76817 14.045 4.07188C14.2589 3.85007 14.4635 3.63797 14.6584 3.44369C15.5208 2.58425 16.3075 1.93905 17.2731 1.59865C18.3583 1.21607 19.535 1.19736 20.9186 1.31136C21.3157 1.34407 21.7453 1.39027 22.1953 1.43864C23.2175 1.54855 24.3446 1.66973 25.4324 1.66973C26.5202 1.66973 27.6473 1.54855 28.6696 1.43864C29.1195 1.39027 29.5492 1.34407 29.9462 1.31136C31.3298 1.19736 32.5065 1.21607 33.5917 1.59865C34.2991 1.84803 34.8298 2.41913 35.5097 3.34678C35.5931 3.46053 35.6799 3.58184 35.7706 3.70858C36.343 4.50842 37.0702 5.5247 38.0655 6.22093C39.0976 6.94294 40.4165 7.47651 41.5494 7.93487C41.8188 8.04386 42.0777 8.1486 42.3197 8.25061C43.742 8.85011 44.5994 9.35558 44.9688 9.96768C45.4455 10.7577 45.6858 11.7407 45.9044 13.0055C45.9455 13.2432 45.9858 13.4921 46.0276 13.7496C46.1973 14.7948 46.3902 15.9833 46.746 17.1493C47.0604 18.1796 47.6541 19.2508 48.1765 20.1936C48.3119 20.4378 48.4424 20.6734 48.5621 20.8974C49.2029 22.0968 49.6148 23.0858 49.6148 24Z" stroke="#3A3845" stroke-width="2.5"/>
<path d="M91.156 11.1505C91.3047 11.1505 91.4474 11.2206 91.5531 11.3456C91.6587 11.4706 91.7187 11.6403 91.7201 11.8179V35.9641C91.7201 36.1416 91.6614 36.312 91.5567 36.4381C91.452 36.5642 91.3098 36.6359 91.1611 36.6375H88.4066C88.2579 36.6359 88.1157 36.5642 88.011 36.4381C87.9063 36.312 87.8476 36.1416 87.8476 35.9641V20.2569C87.6307 20.4672 87.4071 20.6695 87.1767 20.8636C86.5211 21.4096 85.8554 21.8707 85.21 22.3196C84.5646 22.7686 84.1377 23.1205 83.6295 23.4784C82.678 24.1344 81.8496 25.0168 81.1957 26.0709C80.5418 27.125 80.0763 28.3282 79.8281 29.606C79.8002 29.7547 79.7306 29.8875 79.6308 29.9824C79.5309 30.0774 79.4069 30.1286 79.2792 30.1277H76.6518C76.5242 30.1286 76.4001 30.0774 76.3003 29.9824C76.2004 29.8875 76.1308 29.7547 76.1029 29.606C75.8548 28.3266 75.3888 27.1219 74.734 26.0667C74.0791 25.0115 73.2494 24.1284 72.2965 23.4724C71.7883 23.1144 71.2801 22.7201 70.716 22.3136C70.1519 21.9071 69.4048 21.4035 68.7492 20.8575C68.5188 20.6674 68.2952 20.4652 68.0784 20.2508V35.9641C68.0784 36.1416 68.0197 36.312 67.915 36.4381C67.8103 36.5642 67.6681 36.6359 67.5194 36.6375H64.77C64.6212 36.6359 64.4791 36.5642 64.3744 36.4381C64.2697 36.312 64.2109 36.1416 64.2109 35.9641V11.8239C64.2109 11.6453 64.2704 11.474 64.3762 11.3478C64.482 11.2215 64.6254 11.1505 64.775 11.1505H67.4939C67.6264 11.1527 67.7539 11.2104 67.8542 11.3136C67.9546 11.4167 68.0213 11.5587 68.0428 11.7147C68.1953 12.8917 68.7746 15.64 70.8938 17.1749C71.4529 17.5693 72.0068 18.0122 72.6166 18.4429C73.2265 18.8737 73.8211 19.268 74.4005 19.7534C75.5836 20.6923 76.6422 21.8375 77.5412 23.1508C77.5921 23.2278 77.6569 23.29 77.7308 23.3328C77.8048 23.3756 77.8859 23.3979 77.9681 23.3979C78.0502 23.3979 78.1313 23.3756 78.2053 23.3328C78.2792 23.29 78.344 23.2278 78.3949 23.1508C79.292 21.8358 80.3489 20.6886 81.5306 19.7473C82.1353 19.2619 82.7655 18.8251 83.3195 18.4368C83.8734 18.0486 84.4934 17.5693 85.0372 17.1749C87.1615 15.6643 87.7408 12.9281 87.8933 11.7147C87.9148 11.5587 87.9815 11.4167 88.0819 11.3136C88.1822 11.2104 88.3097 11.1527 88.4422 11.1505H91.156Z" fill="#3A3845"/>
<path d="M120.48 23.8941C120.48 30.9152 114.873 36.6376 107.976 36.6376C101.079 36.6376 95.4717 30.9213 95.4717 23.8941C95.4717 16.867 101.079 11.1506 107.976 11.1506C114.873 11.1506 120.48 16.867 120.48 23.8941ZM107.976 15.7808C103.251 15.7808 99.4076 19.4218 99.4076 23.8941C99.4076 28.3665 103.251 31.9771 107.976 31.9771C112.701 31.9771 116.549 28.3361 116.549 23.8699C116.549 19.4036 112.701 15.7808 107.976 15.7808Z" fill="#3A3845"/>
<path d="M149.239 23.8941C149.239 30.9152 143.352 36.6376 136.11 36.6376C128.868 36.6376 122.98 30.9213 122.98 23.8941C122.98 16.867 128.868 11.1506 136.11 11.1506C143.352 11.1506 149.239 16.867 149.239 23.8941ZM136.11 15.7808C131.148 15.7808 127.108 19.4218 127.108 23.8941C127.108 28.3665 131.148 31.9771 136.11 31.9771C141.071 31.9771 145.106 28.3361 145.106 23.8699C145.106 19.4036 141.055 15.7808 136.11 15.7808Z" fill="#3A3845"/>
<path d="M171.615 23.706V11.8182C171.615 11.7305 171.629 11.6437 171.658 11.5627C171.686 11.4817 171.727 11.4081 171.779 11.3461C171.831 11.2842 171.893 11.235 171.961 11.2014C172.029 11.1679 172.102 11.1506 172.175 11.1506H174.937C175.011 11.1506 175.084 11.1679 175.152 11.2014C175.22 11.235 175.281 11.2842 175.334 11.3461C175.386 11.4081 175.427 11.4817 175.455 11.5627C175.483 11.6437 175.498 11.7305 175.498 11.8182V35.9701C175.498 36.0578 175.483 36.1446 175.455 36.2256C175.427 36.3065 175.386 36.3801 175.334 36.4421C175.281 36.5041 175.22 36.5533 175.152 36.5868C175.084 36.6204 175.011 36.6376 174.937 36.6376H172.201C172.127 36.6376 172.054 36.6204 171.986 36.5868C171.918 36.5533 171.857 36.5041 171.804 36.4421C171.752 36.3801 171.711 36.3065 171.683 36.2256C171.655 36.1446 171.64 36.0578 171.64 35.9701V34.0707C171.643 33.4761 171.532 32.8887 171.314 32.3534C170.504 30.3994 168.41 26.7827 163.518 24.5677C161.451 23.6582 159.516 22.3727 157.78 20.7568C157.698 20.677 157.599 20.6267 157.494 20.6119C157.389 20.5971 157.282 20.6184 157.187 20.6732C157.092 20.728 157.011 20.8142 156.956 20.9214C156.9 21.0287 156.872 21.1526 156.873 21.2787V35.9701C156.873 36.1471 156.814 36.3169 156.709 36.4421C156.604 36.5673 156.461 36.6376 156.313 36.6376H153.551C153.402 36.6376 153.26 36.5673 153.154 36.4421C153.049 36.3169 152.99 36.1471 152.99 35.9701V11.8182C152.99 11.6411 153.049 11.4713 153.154 11.3461C153.26 11.221 153.402 11.1506 153.551 11.1506H156.236C156.348 11.1533 156.456 11.1958 156.547 11.2726C156.638 11.3495 156.707 11.4571 156.746 11.5815C157.189 13.0136 159.034 17.6498 164.868 20.2349C166.98 21.1545 168.943 22.4989 170.672 24.2097C170.753 24.2934 170.853 24.3475 170.959 24.3657C171.065 24.3839 171.174 24.3654 171.272 24.3124C171.369 24.2593 171.452 24.174 171.51 24.0665C171.568 23.959 171.599 23.8339 171.6 23.706H171.615Z" fill="#3A3845"/>
<path d="M179.249 34.089C179.249 33.5846 179.359 33.0916 179.565 32.6723C179.772 32.2531 180.065 31.9264 180.408 31.7337C180.751 31.541 181.128 31.4909 181.492 31.5897C181.856 31.6886 182.19 31.9319 182.453 32.289C182.715 32.6461 182.893 33.1008 182.965 33.5956C183.037 34.0904 182.999 34.603 182.856 35.0686C182.714 35.5342 182.472 35.9319 182.163 36.2112C181.854 36.4905 181.491 36.6389 181.12 36.6377C180.874 36.6377 180.63 36.5717 180.403 36.4435C180.176 36.3154 179.969 36.1275 179.795 35.8908C179.622 35.654 179.484 35.373 179.39 35.0638C179.296 34.7547 179.248 34.4234 179.249 34.089Z" fill="#3A3845"/>
</svg>
