<svg width="145" height="38" viewBox="0 0 145 38" fill="none" xmlns="http://www.w3.org/2000/svg">
<mask id="path-1-inside-1_8_94" fill="white">
<path d="M5.84685 19.7675C5.45466 19.3787 5.45466 18.7483 5.84685 18.3594L7.71341 16.5088C10.0666 14.1757 13.8818 14.1757 16.235 16.5088L18.1015 18.3594C18.4937 18.7483 18.4937 19.3787 18.1015 19.7675L16.235 21.6182C13.8818 23.9513 10.0666 23.9513 7.71341 21.6182L5.84685 19.7675Z"/>
</mask>
<path d="M5.84685 19.7675C5.45466 19.3787 5.45466 18.7483 5.84685 18.3594L7.71341 16.5088C10.0666 14.1757 13.8818 14.1757 16.235 16.5088L18.1015 18.3594C18.4937 18.7483 18.4937 19.3787 18.1015 19.7675L16.235 21.6182C13.8818 23.9513 10.0666 23.9513 7.71341 21.6182L5.84685 19.7675Z" stroke="#C69B7B" stroke-width="5" mask="url(#path-1-inside-1_8_94)"/>
<mask id="path-2-inside-2_8_94" fill="white">
<path d="M21.9347 19.7675C21.5425 19.3787 21.5425 18.7483 21.9347 18.3594L23.8013 16.5088C26.1545 14.1757 29.9697 14.1757 32.3229 16.5088L34.1894 18.3594C34.5816 18.7483 34.5816 19.3787 34.1894 19.7675L32.3229 21.6182C29.9697 23.9513 26.1545 23.9513 23.8013 21.6182L21.9347 19.7675Z"/>
</mask>
<path d="M21.9347 19.7675C21.5425 19.3787 21.5425 18.7483 21.9347 18.3594L23.8013 16.5088C26.1545 14.1757 29.9697 14.1757 32.3229 16.5088L34.1894 18.3594C34.5816 18.7483 34.5816 19.3787 34.1894 19.7675L32.3229 21.6182C29.9697 23.9513 26.1545 23.9513 23.8013 21.6182L21.9347 19.7675Z" stroke="#C69B7B" stroke-width="5" mask="url(#path-2-inside-2_8_94)"/>
<mask id="path-3-inside-3_8_94" fill="white">
<path d="M19.3084 5.01315C19.7006 4.6243 20.3365 4.6243 20.7287 5.01315L22.5952 6.86378C24.9484 9.19687 24.9484 12.9795 22.5952 15.3126L20.7287 17.1633C20.3365 17.5521 19.7006 17.5521 19.3084 17.1633L17.4419 15.3126C15.0887 12.9795 15.0887 9.19687 17.4419 6.86378L19.3084 5.01315Z"/>
</mask>
<path d="M19.3084 5.01315C19.7006 4.6243 20.3365 4.6243 20.7287 5.01315L22.5952 6.86378C24.9484 9.19687 24.9484 12.9795 22.5952 15.3126L20.7287 17.1633C20.3365 17.5521 19.7006 17.5521 19.3084 17.1633L17.4419 15.3126C15.0887 12.9795 15.0887 9.19687 17.4419 6.86378L19.3084 5.01315Z" stroke="#C69B7B" stroke-width="5" mask="url(#path-3-inside-3_8_94)"/>
<mask id="path-4-inside-4_8_94" fill="white">
<path d="M19.202 20.1717C19.5942 19.7829 20.23 19.7829 20.6222 20.1717L22.4888 22.0224C24.842 24.3554 24.842 28.1381 22.4888 30.4712L20.6222 32.3218C20.23 32.7107 19.5942 32.7107 19.202 32.3218L17.3354 30.4712C14.9823 28.1381 14.9823 24.3554 17.3354 22.0224L19.202 20.1717Z"/>
</mask>
<path d="M19.202 20.1717C19.5942 19.7829 20.23 19.7829 20.6222 20.1717L22.4888 22.0224C24.842 24.3554 24.842 28.1381 22.4888 30.4712L20.6222 32.3218C20.23 32.7107 19.5942 32.7107 19.202 32.3218L17.3354 30.4712C14.9823 28.1381 14.9823 24.3554 17.3354 22.0224L19.202 20.1717Z" stroke="#C69B7B" stroke-width="5" mask="url(#path-4-inside-4_8_94)"/>
<path d="M39.0527 19C39.0527 19.6095 38.7907 20.1675 38.2986 20.9374C38.2269 21.0495 38.1475 21.1696 38.0632 21.297C37.6325 21.9481 37.0764 22.7888 36.791 23.7235C36.4981 24.6826 36.394 25.7531 36.3058 26.66C36.2821 26.9041 36.2595 27.1363 36.2347 27.3513C36.1055 28.4713 35.9157 29.2774 35.4727 29.8787C35.0322 30.4766 34.31 30.908 33.2755 31.3784C33.0796 31.4675 32.8673 31.5597 32.6448 31.6563C31.8065 32.0203 30.8217 32.448 30.0128 33.0133C29.2045 33.5783 28.6067 34.372 28.1574 34.9686C28.083 35.0673 28.0127 35.1607 27.9461 35.2467C27.4179 35.9298 27.0332 36.3116 26.5304 36.4887C25.7231 36.773 24.8353 36.7917 23.7491 36.7023C23.4472 36.6774 23.1144 36.6417 22.7624 36.6039C21.9465 36.5163 21.0275 36.4177 20.1514 36.4177C19.2752 36.4177 18.3562 36.5163 17.5403 36.6039C17.1883 36.6417 16.8555 36.6774 16.5536 36.7023C15.4675 36.7917 14.5796 36.773 13.7723 36.4887C13.04 36.2308 12.4412 35.7707 11.7727 35.1409C11.6108 34.9883 11.4366 34.8167 11.2516 34.6345C10.7322 34.1227 10.128 33.5275 9.47405 33.0375C8.8242 32.5506 8.05389 32.1246 7.37942 31.7515C7.15444 31.6271 6.94011 31.5085 6.74449 31.3956C5.88702 30.9006 5.24894 30.4473 4.83007 29.8787C4.34912 29.226 4.08068 28.3594 3.85903 27.2497C3.80101 26.9591 3.74477 26.6395 3.6858 26.3043C3.53926 25.4715 3.37577 24.5423 3.12569 23.7235C2.87136 22.8907 2.45196 22.1181 2.11219 21.4922C2.0239 21.3295 1.94098 21.1768 1.86774 21.0355C1.48136 20.29 1.25 19.6878 1.25 19C1.25 18.3473 1.54609 17.6154 2.05326 16.6669C2.14382 16.4976 2.24416 16.3168 2.34929 16.1274C2.76415 15.3799 3.25363 14.4979 3.51174 13.6528C3.79793 12.7157 3.90449 11.7615 3.99185 10.9794C4.01665 10.7573 4.0399 10.5491 4.06527 10.3591C4.18796 9.44031 4.36546 8.75188 4.83007 8.12127C5.23499 7.57167 5.85119 7.15837 6.7086 6.70028C6.88024 6.60857 7.06716 6.5127 7.2638 6.41185C7.96118 6.05418 8.78073 5.63385 9.47405 5.11439C10.1653 4.5965 10.7924 3.94662 11.3265 3.39309C11.4928 3.2208 11.6501 3.05783 11.7974 2.91109C12.4737 2.23771 13.0634 1.76101 13.7723 1.51131C14.5796 1.22697 15.4675 1.20828 16.5536 1.2977C16.8555 1.32256 17.1884 1.35828 17.5404 1.39607C18.3563 1.48364 19.2752 1.58229 20.1514 1.58229C21.0275 1.58229 21.9465 1.48364 22.7623 1.39607C23.1144 1.35828 23.4472 1.32256 23.7491 1.2977C24.8353 1.20828 25.7231 1.22697 26.5304 1.51131C27.0092 1.67996 27.3893 2.07081 27.9271 2.8039C27.9904 2.89018 28.0572 2.98361 28.1278 3.08235C28.5787 3.71278 29.1841 4.55938 30.0128 5.13858C30.8576 5.72904 31.9398 6.16613 32.8379 6.5289C33.0476 6.6136 33.2473 6.69425 33.4315 6.77185C34.5677 7.25032 35.166 7.6237 35.409 8.02602C35.7593 8.6061 35.9438 9.34142 36.1166 10.3406C36.1483 10.5239 36.1797 10.7175 36.2125 10.9191C36.3469 11.7474 36.5033 12.7109 36.791 13.6528C37.0491 14.4979 37.5386 15.3799 37.9534 16.1274C38.0586 16.3168 38.1589 16.4976 38.2495 16.6669C38.7566 17.6154 39.0527 18.3473 39.0527 19Z" stroke="#C69B7B" stroke-width="2.5"/>
<path d="M72.2268 8.82739C72.3447 8.82739 72.4578 8.8829 72.5415 8.98184C72.6252 9.08078 72.6728 9.21516 72.6738 9.35572V28.4715C72.6738 28.612 72.6273 28.7469 72.5443 28.8467C72.4614 28.9466 72.3487 29.0033 72.2309 29.0046H70.0484C69.9305 29.0033 69.8179 28.9466 69.7349 28.8467C69.652 28.7469 69.6054 28.612 69.6054 28.4715V16.0366C69.4336 16.2031 69.2564 16.3632 69.0739 16.5169C68.5544 16.9492 68.0269 17.3142 67.5155 17.6696C67.0041 18.025 66.6659 18.3036 66.2632 18.587C65.5093 19.1063 64.853 19.8049 64.3348 20.6394C63.8167 21.4738 63.4479 22.4264 63.2512 23.438C63.2291 23.5557 63.174 23.6609 63.0948 23.736C63.0157 23.8111 62.9174 23.8517 62.8163 23.851H60.7345C60.6333 23.8517 60.535 23.8111 60.4559 23.736C60.3768 23.6609 60.3216 23.5557 60.2996 23.438C60.1029 22.4251 59.7337 21.4714 59.2149 20.636C58.696 19.8007 58.0386 19.1016 57.2835 18.5822C56.8809 18.2988 56.4782 17.9866 56.0312 17.6648C55.5842 17.343 54.9923 16.9444 54.4729 16.5121C54.2903 16.3616 54.1131 16.2015 53.9413 16.0318V28.4715C53.9413 28.612 53.8948 28.7469 53.8118 28.8467C53.7289 28.9466 53.6162 29.0033 53.4984 29.0046H51.3199C51.2021 29.0033 51.0894 28.9466 51.0064 28.8467C50.9235 28.7469 50.8769 28.612 50.877 28.4715V9.36052C50.877 9.21913 50.924 9.08352 51.0079 8.98354C51.0917 8.88356 51.2054 8.82739 51.3239 8.82739H53.4782C53.5832 8.82912 53.6842 8.87482 53.7637 8.95648C53.8432 9.03814 53.8961 9.15057 53.9131 9.27407C54.0339 10.2058 54.493 12.3816 56.1721 13.5967C56.6151 13.9089 57.054 14.2595 57.5372 14.6005C58.0204 14.9415 58.4916 15.2537 58.9506 15.638C59.888 16.3813 60.7269 17.2879 61.4391 18.3276C61.4795 18.3886 61.5309 18.4379 61.5894 18.4717C61.648 18.5056 61.7123 18.5232 61.7774 18.5232C61.8425 18.5232 61.9068 18.5056 61.9653 18.4717C62.0239 18.4379 62.0753 18.3886 62.1156 18.3276C62.8264 17.2866 63.6639 16.3784 64.6002 15.6332C65.0793 15.2489 65.5787 14.9031 66.0176 14.5957C66.4565 14.2883 66.9478 13.9089 67.3786 13.5967C69.0618 12.4008 69.5209 10.2347 69.6417 9.27407C69.6587 9.15057 69.7116 9.03814 69.7911 8.95648C69.8706 8.87482 69.9716 8.82912 70.0766 8.82739H72.2268Z" fill="#C69B7B"/>
<path d="M95.4618 18.9162C95.4618 24.4746 91.0189 29.0048 85.5541 29.0048C80.0894 29.0048 75.6465 24.4794 75.6465 18.9162C75.6465 13.3531 80.0894 8.82764 85.5541 8.82764C91.0189 8.82764 95.4618 13.3531 95.4618 18.9162ZM85.5541 12.4932C81.8102 12.4932 78.7651 15.3756 78.7651 18.9162C78.7651 22.4569 81.8102 25.3153 85.5541 25.3153C89.2981 25.3153 92.3473 22.4328 92.3473 18.897C92.3473 15.3612 89.2981 12.4932 85.5541 12.4932Z" fill="#C69B7B"/>
<path d="M118.249 18.9162C118.249 24.4746 113.584 29.0048 107.846 29.0048C102.108 29.0048 97.4434 24.4794 97.4434 18.9162C97.4434 13.3531 102.108 8.82764 107.846 8.82764C113.584 8.82764 118.249 13.3531 118.249 18.9162ZM107.846 12.4932C103.915 12.4932 100.714 15.3756 100.714 18.9162C100.714 22.4569 103.915 25.3153 107.846 25.3153C111.778 25.3153 114.975 22.4328 114.975 18.897C114.975 15.3612 111.765 12.4932 107.846 12.4932Z" fill="#C69B7B"/>
<path d="M135.979 18.7673V9.35609C135.979 9.28669 135.99 9.21797 136.013 9.15386C136.035 9.08974 136.068 9.03149 136.109 8.98242C136.15 8.93334 136.199 8.89442 136.253 8.86786C136.307 8.84131 136.365 8.82764 136.423 8.82764H138.611C138.67 8.82764 138.727 8.84131 138.781 8.86786C138.835 8.89442 138.884 8.93334 138.925 8.98242C138.967 9.03149 138.999 9.08974 139.022 9.15386C139.044 9.21797 139.055 9.28669 139.055 9.35609V28.4764C139.055 28.5458 139.044 28.6145 139.022 28.6786C138.999 28.7427 138.967 28.801 138.925 28.8501C138.884 28.8991 138.835 28.938 138.781 28.9646C138.727 28.9912 138.67 29.0048 138.611 29.0048H136.443C136.385 29.0048 136.327 28.9912 136.273 28.9646C136.219 28.938 136.17 28.8991 136.129 28.8501C136.088 28.801 136.055 28.7427 136.033 28.6786C136.011 28.6145 135.999 28.5458 135.999 28.4764V26.9727C136.001 26.502 135.913 26.0369 135.741 25.6131C135.099 24.0662 133.439 21.203 129.563 19.4495C127.926 18.7295 126.392 17.7117 125.017 16.4325C124.952 16.3693 124.873 16.3295 124.79 16.3178C124.707 16.3061 124.622 16.3229 124.547 16.3663C124.471 16.4098 124.408 16.4779 124.364 16.5628C124.32 16.6478 124.297 16.7459 124.298 16.8457V28.4764C124.298 28.6165 124.251 28.7509 124.168 28.8501C124.085 28.9492 123.972 29.0048 123.854 29.0048H121.666C121.548 29.0048 121.435 28.9492 121.352 28.8501C121.268 28.7509 121.222 28.6165 121.222 28.4764V9.35609C121.222 9.21593 121.268 9.08152 121.352 8.98242C121.435 8.88331 121.548 8.82764 121.666 8.82764H123.794C123.882 8.82973 123.968 8.86338 124.04 8.92421C124.112 8.98504 124.167 9.07024 124.197 9.16873C124.549 10.3025 126.01 13.9728 130.633 16.0194C132.306 16.7473 133.862 17.8117 135.232 19.166C135.296 19.2323 135.375 19.2752 135.459 19.2896C135.544 19.304 135.63 19.2893 135.707 19.2473C135.784 19.2053 135.85 19.1378 135.896 19.0527C135.942 18.9676 135.967 18.8685 135.967 18.7673H135.979Z" fill="#C69B7B"/>
<path d="M142.027 26.9871C142.027 26.5878 142.115 26.1975 142.278 25.8656C142.442 25.5337 142.674 25.275 142.946 25.1225C143.217 24.9699 143.516 24.9302 143.805 25.0085C144.093 25.0867 144.358 25.2794 144.566 25.5621C144.773 25.8448 144.915 26.2047 144.972 26.5965C145.028 26.9882 144.999 27.394 144.885 27.7626C144.772 28.1312 144.581 28.446 144.337 28.6671C144.092 28.8883 143.804 29.0058 143.51 29.0048C143.315 29.0048 143.122 28.9526 142.942 28.8511C142.762 28.7496 142.598 28.6009 142.46 28.4135C142.323 28.2261 142.213 28.0036 142.139 27.7588C142.065 27.5141 142.027 27.2518 142.027 26.9871Z" fill="#C69B7B"/>
</svg>
