<svg width="16" height="16" viewBox="0 0 16 16" fill="none" xmlns="http://www.w3.org/2000/svg">
<path fill-rule="evenodd" clip-rule="evenodd" d="M0 8C0 4.80432 0 3.20648 0.761504 2.0556C1.10155 1.54168 1.54168 1.10155 2.0556 0.761504C3.20648 0 4.80432 0 8 0C11.1957 0 12.7935 0 13.9444 0.761504C14.4583 1.10155 14.8984 1.54168 15.2385 2.0556C16 3.20648 16 4.80432 16 8C16 11.1957 16 12.7935 15.2385 13.9444C14.8984 14.4583 14.4583 14.8984 13.9444 15.2385C12.7935 16 11.1957 16 8 16C4.80432 16 3.20648 16 2.0556 15.2385C1.54168 14.8984 1.10155 14.4583 0.761504 13.9444C0 12.7935 0 11.1957 0 8ZM12.1416 8.0002C12.1416 10.2876 10.2873 12.1419 7.99986 12.1419C5.71246 12.1419 3.85816 10.2876 3.85816 8.0002C3.85816 5.71281 5.71246 3.85851 7.99986 3.85851C10.2873 3.85851 12.1416 5.71281 12.1416 8.0002ZM7.99986 10.7407C9.51337 10.7407 10.7403 9.51371 10.7403 8.0002C10.7403 6.48669 9.51337 5.25975 7.99986 5.25975C6.48635 5.25975 5.25941 6.48669 5.25941 8.0002C5.25941 9.51371 6.48635 10.7407 7.99986 10.7407ZM12.3051 4.6236C12.8426 4.6236 13.2783 4.18789 13.2783 3.65042C13.2783 3.11295 12.8426 2.67725 12.3051 2.67725C11.7677 2.67725 11.332 3.11295 11.332 3.65042C11.332 4.18789 11.7677 4.6236 12.3051 4.6236Z" fill="#807F86"/>
</svg>
