<svg width="16" height="16" viewBox="0 0 16 16" fill="none" xmlns="http://www.w3.org/2000/svg">
<path d="M1.52588e-05 2.15106C1.52588e-05 1.63799 0.180201 1.2147 0.540556 0.881222C0.900911 0.547723 1.36939 0.380981 1.94596 0.380981C2.51225 0.380981 2.97041 0.545153 3.32048 0.873526C3.68083 1.21215 3.86102 1.65338 3.86102 2.19724C3.86102 2.68978 3.68599 3.10023 3.33592 3.4286C2.97557 3.76722 2.50195 3.93654 1.91507 3.93654H1.89963C1.33334 3.93654 0.875181 3.76722 0.525112 3.4286C0.175042 3.08998 1.52588e-05 2.66412 1.52588e-05 2.15106ZM0.200787 15.6191V5.33721H3.62936V15.6191H0.200787ZM5.52897 15.6191H8.95754V9.87785C8.95754 9.51869 8.99873 9.24164 9.0811 9.04668C9.22524 8.69779 9.44403 8.40277 9.73747 8.16164C10.0309 7.92049 10.399 7.79993 10.8417 7.79993C11.9949 7.79993 12.5714 8.57466 12.5714 10.1241V15.6191H16V9.72393C16 8.20525 15.6397 7.05342 14.9189 6.26842C14.1982 5.48343 13.2458 5.09094 12.0618 5.09094C10.7336 5.09094 9.69886 5.66044 8.95754 6.79945V6.83023H8.9421L8.95754 6.79945V5.33721H5.52897C5.54956 5.66557 5.55986 6.68656 5.55986 8.40022C5.55986 10.1139 5.54956 12.5201 5.52897 15.6191Z" fill="#807F86"/>
</svg>
