<svg width="24" height="23" viewBox="0 0 24 23" fill="none" xmlns="http://www.w3.org/2000/svg">
<path d="M5.98096 5.44913H22.2696L19.9507 15.3045C19.6496 16.5841 18.5078 17.4885 17.1932 17.4885H11.3484C10.063 17.4885 8.9388 16.6231 8.6099 15.3806L5.98096 5.44913ZM5.98096 5.44913L4.91866 1.19995H1.73175" stroke="#3A3845" stroke-width="1.5" stroke-linecap="round" stroke-linejoin="round"/>
<path d="M9.16903 22.7999C9.95129 22.7999 10.5854 22.1658 10.5854 21.3836C10.5854 20.6013 9.95129 19.9672 9.16903 19.9672C8.38677 19.9672 7.75262 20.6013 7.75262 21.3836C7.75262 22.1658 8.38677 22.7999 9.16903 22.7999Z" fill="#3A3845"/>
<path d="M19.0847 22.7999C19.8669 22.7999 20.5011 22.1658 20.5011 21.3836C20.5011 20.6013 19.8669 19.9672 19.0847 19.9672C18.3024 19.9672 17.6683 20.6013 17.6683 21.3836C17.6683 22.1658 18.3024 22.7999 19.0847 22.7999Z" fill="#3A3845"/>
</svg>
