<svg width="20" height="20" viewBox="0 0 20 20" fill="none" xmlns="http://www.w3.org/2000/svg">
<path d="M20 7.99814C19.9901 8.24396 19.8656 8.52469 19.624 8.7464C18.6567 9.63322 17.6888 10.5192 16.7205 11.4044C16.2683 11.8184 15.8156 12.2318 15.3622 12.6445C15.2974 12.7033 15.2809 12.7554 15.3008 12.8466C15.6489 14.4338 15.9941 16.0217 16.3365 17.6102C16.4058 17.9294 16.474 18.2492 16.5489 18.5674C16.6581 19.0385 16.5186 19.5041 16.1668 19.7676C15.7796 20.0575 15.3686 20.0764 14.9594 19.8231C13.6559 19.0144 12.3541 18.2025 11.054 17.3874C10.7504 17.1981 10.4432 17.0132 10.1447 16.817C10.0449 16.7513 9.97238 16.7508 9.86988 16.8151C8.28881 17.8056 6.7043 18.7899 5.12509 19.7801C4.7897 19.9902 4.44715 20.0692 4.07644 19.9104C3.58598 19.7003 3.32973 19.1621 3.45161 18.6029C3.79629 17.0199 4.1415 15.4369 4.48724 13.8539C4.56 13.5214 4.62506 13.1863 4.70393 12.8563C4.72677 12.7609 4.71083 12.7047 4.64153 12.6418C4.04741 12.1025 3.4548 11.5613 2.86369 11.0183C2.03545 10.2595 1.20402 9.50602 0.380561 8.74169C0.0443784 8.43019 -0.0830842 8.03251 0.0547347 7.57773C0.192554 7.12296 0.500588 6.84916 0.959984 6.79983C1.77415 6.71281 2.58965 6.63992 3.40461 6.56205C4.21081 6.48501 5.01701 6.40852 5.82321 6.33258C6.09194 6.30736 6.36068 6.2791 6.62968 6.25776C6.71625 6.25111 6.76245 6.21148 6.79485 6.12917C7.5251 4.33834 8.25659 2.54826 8.98933 0.758914C9.19167 0.264234 9.55308 -0.0120663 10.0125 0.00040464C10.4719 0.0128756 10.8033 0.247052 10.9854 0.687414C11.4812 1.88545 11.9706 3.08626 12.4622 4.28652C12.7123 4.89621 12.963 5.50756 13.2089 6.12002C13.2466 6.21425 13.3005 6.25083 13.3948 6.25859C14.0427 6.31586 14.6904 6.37591 15.338 6.43872C16.2809 6.52815 17.2237 6.61831 18.1664 6.70921C18.4659 6.73692 18.7657 6.76463 19.0644 6.79955C19.6078 6.86662 20.0042 7.33968 20 7.99814Z" fill="#C69B7B"/>
</svg>
