<svg width="22" height="22" viewBox="0 0 22 22" fill="none" xmlns="http://www.w3.org/2000/svg">
<path d="M21 8.99814C20.9901 9.24396 20.8656 9.52469 20.624 9.7464C19.6567 10.6332 18.6888 11.5192 17.7205 12.4044C17.2683 12.8184 16.8156 13.2318 16.3622 13.6445C16.2974 13.7033 16.2809 13.7554 16.3008 13.8466C16.6489 15.4338 16.9941 17.0217 17.3365 18.6102C17.4058 18.9294 17.474 19.2492 17.5489 19.5674C17.6581 20.0385 17.5186 20.5041 17.1668 20.7676C16.7796 21.0575 16.3686 21.0764 15.9594 20.8231C14.6559 20.0144 13.3541 19.2025 12.054 18.3874C11.7504 18.1981 11.4432 18.0132 11.1447 17.817C11.0449 17.7513 10.9724 17.7508 10.8699 17.8151C9.28881 18.8056 7.7043 19.7899 6.12509 20.7801C5.7897 20.9902 5.44715 21.0692 5.07644 20.9104C4.58598 20.7003 4.32973 20.1621 4.45161 19.6029C4.79629 18.0199 5.1415 16.4369 5.48724 14.8539C5.56 14.5214 5.62506 14.1863 5.70393 13.8563C5.72677 13.7609 5.71083 13.7047 5.64153 13.6418C5.04741 13.1025 4.4548 12.5613 3.86369 12.0183C3.03545 11.2595 2.20402 10.506 1.38056 9.74169C1.04438 9.43019 0.916916 9.03251 1.05473 8.57774C1.19255 8.12296 1.50059 7.84916 1.95998 7.79983C2.77415 7.71281 3.58965 7.63992 4.40461 7.56205C5.21081 7.48501 6.01701 7.40852 6.82321 7.33258C7.09194 7.30736 7.36068 7.2791 7.62968 7.25776C7.71625 7.25111 7.76245 7.21148 7.79485 7.12917C8.5251 5.33834 9.25659 3.54826 9.98933 1.75891C10.1917 1.26423 10.5531 0.987934 11.0125 1.0004C11.4719 1.01288 11.8033 1.24705 11.9854 1.68741C12.4812 2.88545 12.9706 4.08626 13.4622 5.28652C13.7123 5.89621 13.963 6.50756 14.2089 7.12002C14.2466 7.21425 14.3005 7.25083 14.3948 7.25859C15.0427 7.31586 15.6904 7.37591 16.338 7.43872C17.2809 7.52815 18.2237 7.61831 19.1664 7.7092C19.4659 7.73692 19.7657 7.76463 20.0644 7.79955C20.6078 7.86662 21.0042 8.33968 21 8.99814Z" stroke="#C69B7B" stroke-linecap="round" stroke-linejoin="round"/>
</svg>
