<svg width="16" height="14" viewBox="0 0 16 14" fill="none" xmlns="http://www.w3.org/2000/svg">
<path d="M10.6907 0.512342V0.50946H11.4409L11.715 0.564209C11.8978 0.599752 12.0637 0.646331 12.2128 0.703961C12.3619 0.761591 12.5062 0.828831 12.6456 0.905666C12.7851 0.982501 12.9116 1.06079 13.0251 1.14051C13.1376 1.21927 13.2386 1.30284 13.328 1.3912C13.4165 1.48052 13.5545 1.50358 13.7421 1.46035C13.9297 1.41713 14.1316 1.3571 14.348 1.28026C14.5645 1.20343 14.7785 1.11698 14.9901 1.02093C15.2017 0.924871 15.3306 0.863884 15.3767 0.837951C15.4219 0.811067 15.446 0.796659 15.4489 0.794728L15.4517 0.790406L15.4662 0.783202L15.4806 0.775999L15.495 0.768795L15.5095 0.761591L15.5123 0.757269L15.5167 0.754388L15.521 0.751506L15.5239 0.747184L15.5383 0.742862L15.5527 0.73998L15.5499 0.761591L15.5455 0.783202L15.5383 0.804814L15.5311 0.826425L15.5239 0.840832L15.5167 0.85524L15.5095 0.876851C15.5046 0.891259 15.4998 0.910464 15.495 0.934481C15.4902 0.958498 15.4445 1.05454 15.358 1.22263C15.2714 1.39072 15.1632 1.56121 15.0333 1.7341C14.9035 1.90699 14.7871 2.0376 14.6842 2.12598C14.5803 2.21531 14.5116 2.27773 14.4779 2.31328C14.4442 2.34977 14.4034 2.38338 14.3553 2.41413L14.2831 2.46167L14.2687 2.46888L14.2543 2.47608L14.2514 2.4804L14.2471 2.48328L14.2427 2.48617L14.2398 2.49049L14.2254 2.49769L14.211 2.5049L14.2081 2.50922L14.2038 2.5121L14.1994 2.51498L14.1966 2.5193L14.1937 2.52363L14.1893 2.52651L14.185 2.52939L14.1821 2.53371H14.2543L14.6582 2.44727C14.9276 2.38964 15.1848 2.32 15.4301 2.23836L15.8196 2.10869L15.8629 2.09428L15.8846 2.08708L15.899 2.07988L15.9134 2.07267L15.9278 2.06547L15.9423 2.05826L15.9711 2.05394L16 2.05106V2.07988L15.9928 2.08276L15.9856 2.08708L15.9827 2.0914L15.9783 2.09428L15.974 2.09716L15.9711 2.10149L15.9683 2.10581L15.9639 2.10869L15.9596 2.11157L15.9567 2.11589L15.9538 2.12022L15.9495 2.1231L15.9423 2.13751L15.9351 2.15191L15.9307 2.15479C15.9288 2.15768 15.8677 2.23931 15.7475 2.39972C15.6273 2.56108 15.5624 2.64272 15.5527 2.64465C15.5431 2.64753 15.5297 2.66194 15.5123 2.68787C15.496 2.71475 15.394 2.82186 15.2065 3.00916C15.0189 3.19645 14.8352 3.36309 14.6554 3.5091C14.4745 3.65605 14.3832 3.83662 14.3812 4.05082C14.3784 4.26405 14.3673 4.50514 14.348 4.77407C14.3288 5.04302 14.2927 5.33356 14.2398 5.64573C14.1869 5.95789 14.1052 6.31088 13.9946 6.70467C13.884 7.09847 13.7493 7.48268 13.5906 7.85727C13.4319 8.23187 13.266 8.56804 13.0929 8.8658C12.9197 9.16355 12.761 9.41569 12.6168 9.62219C12.4725 9.82869 12.3258 10.0232 12.1767 10.2057C12.0276 10.3882 11.8391 10.5937 11.6112 10.8223C11.3823 11.05 11.2572 11.1748 11.2361 11.1969C11.214 11.2181 11.1197 11.2968 10.9533 11.4332C10.7879 11.5706 10.6099 11.7079 10.4195 11.8453C10.23 11.9817 10.0559 12.0955 9.89719 12.1867C9.73849 12.278 9.54709 12.3822 9.32298 12.4994C9.09984 12.6175 8.85842 12.727 8.59872 12.8279C8.33903 12.9287 8.06491 13.0224 7.77636 13.1088C7.48781 13.1952 7.20889 13.2625 6.93957 13.3105C6.67027 13.3585 6.36488 13.3994 6.02343 13.433L5.51126 13.4834V13.4906H4.57347V13.4834L4.45084 13.4762C4.3691 13.4714 4.30176 13.4666 4.24886 13.4618C4.19597 13.457 3.99638 13.4306 3.65012 13.3825C3.30386 13.3345 3.03215 13.2865 2.83497 13.2385C2.63781 13.1904 2.34444 13.0992 1.9549 12.9647C1.56536 12.8303 1.23209 12.6943 0.955079 12.557C0.67904 12.4206 0.505911 12.3342 0.435693 12.2977C0.366441 12.2621 0.288533 12.2179 0.201969 12.1651L0.0721218 12.0859L0.0692507 12.0815L0.0649081 12.0787L0.0605799 12.0758L0.0576944 12.0715L0.043267 12.0643L0.0288396 12.0571L0.0259685 12.0527L0.0216259 12.0498L0.0172976 12.047L0.0144122 12.0426L0.0115411 12.0383L0.00719845 12.0354H-1.52588e-05V12.0066L0.0144122 12.0095L0.0288396 12.0138L0.0937629 12.021C0.137045 12.0258 0.254874 12.033 0.447235 12.0426C0.63961 12.0523 0.843988 12.0523 1.0604 12.0426C1.27681 12.033 1.49804 12.0114 1.72406 11.9778C1.95009 11.9442 2.217 11.8866 2.52478 11.8049C2.83258 11.7233 3.11535 11.6263 3.37313 11.5139C3.62994 11.4006 3.81267 11.316 3.92137 11.2603C4.02908 11.2056 4.19356 11.1038 4.41477 10.9549L4.7466 10.7316L4.74949 10.7272L4.75382 10.7244L4.75816 10.7215L4.76103 10.7172L4.76392 10.7128L4.76824 10.71L4.77259 10.7071L4.77546 10.7027L4.78989 10.6984L4.80431 10.6955L4.8072 10.6811L4.81153 10.6667L4.81587 10.6638L4.81874 10.6595L4.70332 10.6523C4.62638 10.6475 4.55183 10.6427 4.4797 10.6379C4.40756 10.6331 4.29455 10.6115 4.14065 10.5731C3.98677 10.5347 3.82085 10.477 3.64291 10.4002C3.46497 10.3234 3.29184 10.2321 3.12352 10.1264C2.95521 10.0208 2.83353 9.9329 2.75851 9.86279C2.68445 9.79362 2.58826 9.69567 2.46996 9.56888C2.35262 9.44114 2.25066 9.31002 2.1641 9.17556C2.07753 9.04109 1.99482 8.88595 1.91596 8.7102L1.7962 8.44798L1.78898 8.42637L1.78177 8.40476L1.77744 8.39035L1.77456 8.37594L1.7962 8.37882L1.81784 8.38315L1.97654 8.40476C2.08235 8.41916 2.24827 8.42396 2.47429 8.41916C2.70032 8.41437 2.85661 8.40476 2.94318 8.39035C3.02974 8.37594 3.08265 8.36633 3.10188 8.36153L3.13073 8.35433L3.1668 8.34713L3.20287 8.33992L3.20576 8.3356L3.21008 8.33272L3.21443 8.32984L3.2173 8.32552L3.18844 8.31831L3.15959 8.31111L3.13073 8.3039L3.10188 8.2967L3.07302 8.2895C3.05379 8.2847 3.02013 8.27509 2.97203 8.26068C2.92395 8.24627 2.7941 8.19344 2.58249 8.1022C2.3709 8.01096 2.20257 7.92211 2.07753 7.83566C1.95218 7.74897 1.83266 7.65415 1.71973 7.55183C1.6072 7.4481 1.48361 7.31459 1.34895 7.15131C1.2143 6.98803 1.09407 6.79832 0.988262 6.58221C0.882466 6.3661 0.803116 6.1596 0.75021 5.96269C0.697518 5.76694 0.662754 5.56681 0.646347 5.36478L0.620363 5.06222L0.634791 5.0651L0.649218 5.06943L0.663646 5.07663L0.678073 5.08383L0.692501 5.09104L0.706928 5.09824L0.930553 5.19909C1.07965 5.26633 1.26479 5.32396 1.48601 5.37198C1.70724 5.42 1.83948 5.44643 1.88276 5.45122L1.94769 5.45843H2.07753L2.07466 5.45411L2.07032 5.45122L2.06599 5.44834L2.0631 5.44402L2.06023 5.4397L2.05589 5.43682L2.05156 5.43394L2.04868 5.42961L2.03425 5.42241L2.01982 5.41521L2.01695 5.41088L2.01261 5.408L2.00828 5.40512L2.0054 5.4008L1.99097 5.39359L1.97654 5.38639L1.97367 5.38207C1.97078 5.38014 1.92942 5.34941 1.84958 5.28986C1.7707 5.22935 1.68799 5.15107 1.60143 5.05502C1.51486 4.95896 1.4283 4.85811 1.34173 4.75246C1.25501 4.64657 1.17777 4.53328 1.1109 4.41389C1.04358 4.29383 0.972392 4.14109 0.89737 3.95573C0.823314 3.77131 0.767047 3.58546 0.728569 3.39816C0.690106 3.21086 0.668464 3.02597 0.663646 2.84347C0.658841 2.66097 0.663646 2.5049 0.678073 2.37523C0.692501 2.24556 0.721355 2.09908 0.764638 1.9358C0.80792 1.77252 0.870448 1.59963 0.952194 1.41713L1.07483 1.14339L1.08204 1.12178L1.08925 1.10017L1.0936 1.09729L1.09647 1.09296L1.09935 1.08864L1.10368 1.08576L1.10802 1.08864L1.1109 1.09296L1.11378 1.09729L1.11811 1.10017L1.12245 1.10305L1.12532 1.10737L1.12821 1.11169L1.13254 1.11457L1.13975 1.12898L1.14696 1.14339L1.15131 1.14627L1.15418 1.15059L1.34895 1.36671C1.47879 1.51078 1.63269 1.67167 1.81062 1.84936C1.98857 2.02704 2.08716 2.11925 2.10639 2.12598C2.12563 2.13366 2.14967 2.15574 2.17852 2.19225C2.20738 2.2278 2.30357 2.3128 2.46707 2.44727C2.63059 2.58173 2.84459 2.73782 3.10909 2.91551C3.3736 3.0932 3.66696 3.26849 3.98916 3.44138C4.31139 3.61427 4.65764 3.77035 5.02794 3.90962C5.39825 4.0489 5.65794 4.14014 5.80702 4.18337C5.95611 4.22659 6.21099 4.28181 6.57167 4.34905C6.93236 4.41629 7.20408 4.45951 7.38682 4.47872C7.56957 4.49792 7.69461 4.50898 7.76193 4.51186L7.86292 4.51474L7.86005 4.49313L7.85571 4.47152L7.82686 4.29142C7.80762 4.17137 7.798 4.00327 7.798 3.78716C7.798 3.57105 7.81484 3.37175 7.8485 3.18925C7.88217 3.00675 7.93267 2.82186 7.99998 2.63456C8.06732 2.44727 8.13321 2.29694 8.19764 2.18361C8.26305 2.07123 8.34865 1.943 8.45445 1.79893C8.56026 1.65485 8.69732 1.50598 8.86563 1.3523C9.03395 1.19861 9.22631 1.06174 9.44273 0.941685C9.65914 0.821627 9.85873 0.73037 10.0415 0.667943C10.2242 0.605515 10.3781 0.564684 10.5031 0.545479C10.6282 0.526274 10.6907 0.515223 10.6907 0.512342V0.512342Z" fill="#807F86"/>
</svg>
