<svg width="18" height="14" viewBox="0 0 18 14" fill="none" xmlns="http://www.w3.org/2000/svg">
<path d="M9.3899 13.2044L5.77906 13.1369C4.60995 13.1134 3.43793 13.1603 2.29175 12.9167C0.548134 12.5527 0.424611 10.7679 0.295356 9.27077C0.117256 7.16602 0.186204 5.02308 0.522301 2.9359C0.712039 1.76477 1.45873 1.06595 2.61347 0.989909C6.51156 0.713931 10.4356 0.746638 14.325 0.875391C14.7358 0.887194 15.1494 0.951706 15.5544 1.02514C17.5538 1.38329 17.6026 3.40586 17.7322 5.10849C17.8614 6.82869 17.8069 8.55772 17.5598 10.2662C17.3616 11.6808 16.9824 12.867 15.3821 12.9816C13.377 13.1313 11.4179 13.2519 9.40709 13.2135C9.40718 13.2044 9.39563 13.2044 9.3899 13.2044ZM7.26708 9.62306C8.7781 8.73648 10.2603 7.86466 11.7627 6.98402C10.2488 6.09743 8.76946 5.22562 7.26708 4.34498V9.62306Z" fill="#807F86"/>
</svg>
